<?xml version="1.0" encoding="utf-8"?>
<!-- Generator: Adobe Illustrator 24.0.1, SVG Export Plug-In . SVG Version: 6.00 Build 0)  -->
<svg version="1.1" id="Layer_1" xmlns="http://www.w3.org/2000/svg" xmlns:xlink="http://www.w3.org/1999/xlink" x="0px" y="0px"
	 viewBox="0 0 600 600" style="enable-background:new 0 0 600 600;" xml:space="preserve">
<style type="text/css">
	.st0{fill:#FAEEEE;stroke:#FAEEEE;stroke-width:7;stroke-miterlimit:10;}
	.st1{fill:#FAEEEE;}
	.st2{fill:#FAEEEE;stroke:#FAEEEE;stroke-width:16;stroke-miterlimit:10;}
</style>
<path class="st0" d="M299.99,595.28c-162.74,0-295.15-132.4-295.15-295.15C4.84,137.39,137.4-2.22,299.99,4.99
	c164.45,7.29,297.39,141.97,295.15,295.15C592.75,462.86,462.73,595.28,299.99,595.28z M299.99,9.39
	C139.67,9.39,9.24,139.81,9.24,300.13c0,160.32,126.6,295.15,290.75,290.75c160.26-4.29,290.75-130.43,290.75-290.75
	C590.73,139.81,455.7,9.39,299.99,9.39z"/>
<g>
	<path class="st1" d="M300.13,362.65c-1.85,13.08-7.6,49.96-10.37,61.73H161.94V413.4c23.71-2.35,26.12-4.97,26.12-38.45V224.79
		c0-33.22-1.85-35.58-24.82-37.67v-11.51h75.02v11.51c-21.86,2.09-24.45,4.19-24.45,37.67v148.84c0,20.93,1.3,28.25,6.48,32.18
		c5.37,4.19,14.82,4.97,25.75,4.97c14.63,0,24.45-2.36,30.75-12.3c5.19-7.32,10.37-19.88,15-38.19L300.13,362.65z"/>
</g>
<g>
	<path class="st1" d="M347.7,428.02v-11.31c21.33-2.42,23.6-4.85,23.6-38.77V222.59c0-34.19-2.27-36.61-23.6-38.77v-11.85h71.33
		v11.85c-21.16,2.15-23.43,4.58-23.43,38.77v155.35c0,33.92,2.27,36.35,23.43,38.77v11.31H347.7z"/>
</g>
<line class="st2" x1="237.74" y1="300" x2="372.41" y2="300"/>
</svg>
