<?xml version="1.0" encoding="utf-8"?>
<!-- Generator: Adobe Illustrator 24.0.1, SVG Export Plug-In . SVG Version: 6.00 Build 0)  -->
<svg version="1.1" id="Layer_1" xmlns="http://www.w3.org/2000/svg" xmlns:xlink="http://www.w3.org/1999/xlink" x="0px" y="0px"
	 viewBox="0 0 841.89 595.28" style="enable-background:new 0 0 841.89 595.28;" xml:space="preserve">
<style type="text/css">
	.st0{fill:#FAEEEE;}
	.st1{fill:#FAEEEE;stroke:#FAEEEE;stroke-width:3;stroke-miterlimit:10;}
</style>
<path class="st0" d="M438.72,474.89c-111,0-201.3-90.3-201.3-201.3c0-111,90.41-206.21,201.3-201.3
	c112.16,4.97,202.83,96.83,201.3,201.3C638.39,384.58,549.71,474.89,438.72,474.89z M438.72,75.29
	c-109.34,0-198.3,88.96-198.3,198.3c0,109.34,86.34,201.3,198.3,198.3c109.3-2.93,198.3-88.96,198.3-198.3
	C637.02,164.25,544.92,75.29,438.72,75.29z"/>
<g>
	<path class="st0" d="M438.81,314.2c-1.26,8.92-5.18,34.08-7.08,42.1h-87.18v-7.49c16.17-1.61,17.81-3.39,17.81-26.23V220.18
		c0-22.66-1.26-24.26-16.93-25.69v-7.85h51.17v7.85c-14.91,1.43-16.68,2.85-16.68,25.69V321.7c0,14.27,0.88,19.27,4.42,21.95
		c3.66,2.85,10.11,3.39,17.56,3.39c9.98,0,16.68-1.61,20.97-8.39c3.54-4.99,7.08-13.56,10.23-26.05L438.81,314.2z"/>
</g>
<g>
	<path class="st0" d="M471.26,356.31v-7.71c14.55-1.65,16.1-3.31,16.1-26.44V216.2c0-23.32-1.55-24.97-16.1-26.44v-8.08h48.65v8.08
		c-14.43,1.47-15.98,3.12-15.98,26.44v105.95c0,23.14,1.55,24.79,15.98,26.44v7.71H471.26z"/>
</g>
<line class="st1" x1="396.26" y1="266.83" x2="488.11" y2="266.83"/>
</svg>
